<svg xmlns="http://www.w3.org/2000/svg" width="775" height="274" viewBox="0 0 775 274">
    <g fill="none" fill-rule="evenodd">
        <path fill="#023F5D" d="M68.73 184.262c-4.451 4.196-8.776 6.877-13.064 8.107a47.348 47.348 0 0 1-.084-2.908c0-8.021 1.708-16.108 3.972-22.961 5.249-1.903 8.342-3.022 12.994-4.708-1.837 6.965-3.122 14.466-3.817 22.47m687.496-83.352c1.71-8.291 6.725-32.595 10.659-51.671l.62-.083-.237-1.772c2.69-13.052 4.795-23.249 4.795-23.249l-7.776.975-.403-3.004c-2.092-15.645-14.171-22.38-25.042-20.908-1.861.25-3.65.71-5.354 1.376l-.04-.177-2.44.325a22.205 22.205 0 0 0-4.568.134c-1.601.217-3.14.583-4.604 1.092l-16.755 2.239a27.6 27.6 0 0 0-5.08.209 28.197 28.197 0 0 0-8.667 2.619 30.274 30.274 0 0 0-9.192-.189 30.763 30.763 0 0 0-5.302 1.2l1.48-7.064-23.4 6.032-37.032 9.654-5.401 25.513-89.64 11.251-58.537 7.346-.093.412c-1.102.025-2.205.068-3.3.205-21.227 2.664-36.127 13.803-46.113 28.989-2.056-3.878-4.678-7.487-8.07-10.477-7.504-6.624-17.067-9.761-26.237-8.61-.535.066-1.084.276-1.621.366l.038-.168-48.763 6.12v-.001l-58.545 7.352-.091.41c-1.101.024-2.202.066-3.297.204-12.844 1.611-23.324 6.429-31.87 13.306 1.005-4.865 2.016-9.748 2.016-9.748l-.24.03a30.538 30.538 0 0 0 1.24-8.586c0-8.253-3.458-16.04-9.486-21.358-6.06-5.348-14.276-7.821-22.542-6.785-15.762 1.978-28.107 16.004-28.107 31.927 0 4.173.88 8.216 2.517 11.876l-47.454 5.955-.091.412c-1.101.024-2.204.069-3.3.205-14.456 1.815-26.807 7.892-36.67 17.497-.857-1.084-1.741-2.147-2.792-3.074-6.733-5.943-16.685-8.134-29.574-6.517C19.13 118.065 0 159.399 0 197.986c0 15.654 4.293 27.379 12.762 34.853 5.267 4.648 14.759 9.782 30.075 7.862 16.139-2.024 27.836-8.054 36.643-15.007.38.341.672.763 1.07 1.088 5.023 4.079 13.942 8.572 27.908 6.821 6.5-.818 12.702-3.233 18.496-7.031-1.478 4.091-2.35 8.658-2.35 13.813 0 9.553 3.814 18.18 10.738 24.286 7.467 6.589 17.854 9.6 28.5 8.26 24.53-3.079 41.206-20.266 46.957-48.396l2.252-11.093a111.98 111.98 0 0 0 6.014-3.061c6.974 5.103 16.158 7.314 26.714 5.986 8.582-1.076 16.669-4.857 23.945-11.085 5.614 3.113 13.22 4.996 23.752 3.888l-.016.076 58.755-7.372s3.766-18.378 4.23-20.648c1.898 3.627 4.21 6.333 6.357 8.225 7.302 6.444 17.449 8.902 30.154 7.307 7.74-.974 14.535-4.733 20.443-9.407 6.733 4.276 15.29 6.06 25.07 4.833 8.589-1.078 16.676-4.859 23.953-11.088 5.842 3.24 13.78 5.213 24.984 3.808 6.78-.849 13.718-4.164 21.536-10.289 5.87 3.548 14.096 5.818 25.877 4.339 7.157-.898 14.729-4.691 23.184-11.563 6.405 4.359 15.33 6.73 27.456 5.208 7.179-.902 14.613-4.623 23.08-11.544 6.376 4.354 15.22 6.738 27.182 5.235 7.424-.931 15.194-4.932 24.109-12.412 7.08 5.796 16.78 8.416 28.046 7.004 8.29-1.042 16.104-4.64 23.184-10.493 5.859 3.394 13.132 4.797 21.387 3.762 10.137-1.274 24.496-5.801 32.166-30.324l9.388-30.011-17.775 7.094"/>
        <path fill="#F39E20" d="M668.603 47.738c-2.16.288-3.947-1.154-4.248-3.396-.31-2.33 1.039-4.147 3.284-4.45 2.2-.293 3.935 1.069 4.293 3.435.3 2.244-1.002 4.099-3.288 4.406l-.041.005zM691.746 43.605c-1.068.703-3.17 1.415-5.626 1.745-6.688.895-11.515-2.641-12.38-9.117-.806-6.01 2.684-11.52 10.387-12.55 1.691-.226 3.594-.178 5.016.147l-.376 4.92c-.807-.236-1.988-.377-3.68-.153-3.39.454-5.268 3.159-4.778 6.499.51 3.81 3.316 5.46 6.45 5.04 1.523-.202 2.674-.614 3.591-1.17l1.396 4.639zM704.049 38.296c2.54-.34 3.771-3.044 3.274-6.772-.408-3.049-2.012-6.02-4.933-5.63-3.049.41-3.816 3.698-3.403 6.786.471 3.516 2.31 5.985 5.021 5.621l.041-.005zm.449 4.64c-6.055.81-11.244-2.549-12.139-9.236-.896-6.689 2.937-11.554 9.627-12.446 6.305-.845 11.122 2.946 11.96 9.211 1.008 7.536-3.906 11.73-9.407 12.464l-.041.007zM717.45 26.377c-.348-2.581-.72-4.728-1.055-6.58l5.46-.73.634 2.802.127-.017c.708-1.472 2.311-3.667 5.823-4.141 2.711-.36 4.973.759 6.15 2.796l.084-.01c.656-1.207 1.431-2.173 2.37-2.903a7.995 7.995 0 0 1 3.8-1.541c3.978-.532 7.357 1.859 8.184 8.04l1.632 12.19-6.265.838-1.5-11.217c-.403-3.006-1.608-4.611-3.684-4.333-1.522.205-2.403 1.356-2.705 2.647a6.744 6.744 0 0 0 .005 1.637l1.62 12.105-6.265.839-1.552-11.6c-.346-2.583-1.514-4.235-3.589-3.957-1.65.222-2.457 1.62-2.7 2.686-.144.539-.107 1.137-.034 1.688l1.61 12.022-6.265.837-1.886-14.098z"/>
        <path fill="#6FCCE3" d="M209.202 103.198c8.346-1.048 15.174-8.542 15.174-16.888 0-8.347-6.828-14.319-15.174-13.27-8.346 1.047-14.984 8.71-14.984 17.053 0 8.349 6.638 14.153 14.984 13.105zm503.173 11.769c-.569 2.157-.949 4.288-.949 6.186-3.793 5.784-7.965 10.674-12.328 11.22-4.742.596-11-.707-11-12.085 0-25.796 11.381-57.381 25.607-59.167 2.654-.333 6.257-.027 9.292 2.248l-10.622 51.597zm-249.403 31.3c-.569 2.349-.95 4.482-1.14 6.401-3.604 5.761-7.777 10.46-12.14 11.007-4.739.595-10.997-.707-10.997-12.085 0-25.797 11.378-57.382 25.604-59.168 2.656-.334 6.257-.025 9.294 2.25l-10.62 51.595zm-192.7 24.185c-.568 2.347-.948 4.482-1.137 6.399-3.604 5.764-7.778 10.46-12.14 11.01-4.74.596-10.999-.707-10.999-12.085 0-25.797 11.38-57.385 25.606-59.17 2.655-.331 6.257-.024 9.292 2.25l-10.622 51.596zM168.614 229.3c-2.276 11.476-7.208 15.7-11.002 16.174-4.173.522-7.585-2.652-7.585-5.308 0-10.24 9.104-16.695 20.862-22.151l-2.275 11.285zm-35.657-41.614c-.57 2.35-.948 4.482-1.138 6.403-3.605 5.76-7.776 10.46-12.139 11.007-4.74.595-11-.708-11-12.085 0-25.797 11.38-57.382 25.604-59.168 2.655-.335 6.26-.027 9.293 2.25l-10.62 51.593zM738.55 118.13c0-2.087.381-4.222.95-6.568l13.656-66.2-27.123 3.4-1.137 5.075c-3.416-2.414-8.158-3.715-12.708-3.145-36.942 4.639-49.057 43.212-49.665 75.36-5.23 5.051-10.629 9.592-15.2 10.164-7.585.952-9.483-1.654-9.483-6.016 0-.949-.19-2.82 12.895-64.399l11.384-1.427 1.517-7.778-11.383 1.428c3.605-17.522 6.45-30.779 6.45-30.779l-28.069 7.32-5.692 26.889-6.26.785-1.517 7.778 6.26-.787c-2.933 15.198-11.347 50.83-12.852 64.735-4.689 4.371-9.429 8.048-13.508 8.56-7.59.952-9.485-1.845-9.485-6.016 0-1.708.381-3.843.76-5.975l13.656-66.201-27.312 3.428-13.656 66.201c-.57 2.347-.949 4.48-1.139 6.4-4.743 4.389-9.483 8.019-13.466 8.519-7.588.95-9.484-1.844-9.484-6.017 0-1.708.381-3.843.76-5.975l13.656-66.2-27.313 3.427-13.657 66.201c-.67 3.286-1.03 6.214-1.105 8.827-3.598 3.018-7.13 5.29-10.27 5.686-7.59.954-9.486-1.845-9.486-6.016 0-1.707.381-3.84.76-5.974l13.656-66.203-27.31 3.43-1.14 5.072c-3.416-2.415-8.156-3.715-12.708-3.145-37.933 4.763-49.69 45.306-49.69 77.93 0 .758.028 1.523.08 2.284-2.482 2.357-5.012 4.025-8.617 4.478-7.397.928-9.483-1.655-9.483-5.828 0-1.898.38-4.03.95-6.185l7.776-37.206c.38-1.564.38-3.082.38-4.6 0-12.707-11.57-22.255-21.814-20.97-8.343 1.046-17.072 6.697-24.844 13.361l2.273-10.529-27.31 3.43-15.446 74.793c-3.756 3.208-7.452 5.655-10.726 6.064-7.588.953-9.484-1.843-9.484-6.015 0-1.708.38-3.844.76-5.976l13.655-66.201-27.312 3.43-1.137 5.072c-3.415-2.419-8.157-3.716-12.708-3.145-37.228 4.668-49.237 43.804-49.67 76.096-5.476 6.263-11.87 11.246-18.609 15.355l17.638-85.287-27.312 3.428-16.056 77.253c-2.477 1.733-4.878 2.947-7.082 3.224-7.586.953-9.482-1.845-9.482-6.017 0-1.708.378-3.84.758-5.974l13.656-66.203-27.312 3.43-1.139 5.073c-3.414-2.416-8.154-3.716-12.708-3.146-35.402 4.445-48.002 40.058-49.526 71.311-7.934 8.72-17.415 15.614-28.802 17.043-11.569 1.453-13.845-7.367-13.845-18.558 0-20.484 10.242-52.684 26.174-54.684 4.171-.523 7.017 1.014 7.017 5.566 0 1.517-.378 3.274-.948 5.43 2.466-1.068 4.363-1.685 6.07-1.9 2.276-.285 3.794.095 4.741.544.76-2.561.95-4.292.95-6.378 0-10.433-10.623-11.752-20.865-10.466-36.795 4.618-48.744 42.722-48.744 70.412 0 22.38 10.241 29.82 25.984 27.845 22.06-2.768 34.02-14.506 42.23-25.462.848 10.332 6.68 20.458 23.391 18.363 11.57-1.454 20.105-10.3 25.794-18.79 2.466 9.555 10.813 13.058 23.141 11.51 5.46-.686 11.822-4.923 18.117-10.487l-1.428 6.875c-17.828 7.55-32.623 15.095-32.623 32.546 0 12.327 10.812 19.128 22.38 17.675 12.52-1.572 28.451-8.693 34.141-36.529l3.794-18.683c8.583-3.5 16.511-7.436 22.152-12.512 2.717 7.263 9.131 12.758 21.85 11.16 11.567-1.451 20.102-10.297 25.793-18.79 2.467 9.554 10.81 13.059 23.138 11.513 6.564-.826 14.433-6.78 21.921-14.006l-2.387 11.553 27.312-3.427 16.123-78.649c3.981-3.154 7.397-4.91 11.95-5.481 5.12-.645 8.723 3.263 8.723 10.094 0 1.517-.19 3.248-.57 5.002l-7.205 35.046c-.76 3.7-1.139 6.78-1.139 9.814 0 14.225 8.724 19.578 23.52 17.722 8.233-1.034 16.35-8.404 23.434-16.425 2.567 7.6 8.968 13.494 22.082 11.85 11.57-1.453 20.106-10.298 25.797-18.79 2.466 9.554 10.81 13.058 23.137 11.51 7.357-.922 16.357-8.293 24.62-16.677 2.64 8.966 10.888 12.22 22.795 10.727 8.158-1.025 18.4-9.897 27.313-19.36 1.705 10.788 10.43 14.624 23.328 13.006 8.111-1.02 18.215-9.874 27.13-19.282 1.846 10.651 10.283 14.585 23.13 12.974 8.703-1.095 19.703-11.206 29.064-21.347 1.54 9.418 7.695 17.868 23.093 15.938 11.57-1.454 20.102-10.3 25.793-18.79 1.9 8.488 7.778 13.438 18.778 12.059 6.448-.81 14.413-2.947 19.723-19.926-1.517.76-3.603 1.022-4.929 1.188-5.312.668-6.829-2.177-6.829-6.16z"/>
    </g>
</svg>
