<?xml version="1.0" encoding="UTF-8"?>
<svg width="18px" height="18px" viewBox="0 0 18 18" version="1.1" xmlns="http://www.w3.org/2000/svg" xmlns:xlink="http://www.w3.org/1999/xlink">
    <!-- Generator: Sketch 47.1 (45422) - http://www.bohemiancoding.com/sketch -->
    <title>icon-store-white</title>
    <desc>Created with Sketch.</desc>
    <defs></defs>
    <g id="Articulos" stroke="none" stroke-width="1" fill="none" fill-rule="evenodd">
        <g id="Artículos---[Desktop]" transform="translate(-842.000000, -41.000000)" fill="#212121">
            <g id="header" transform="translate(70.000000, 1.000000)">
                <g id="ui-control" transform="translate(270.000000, 40.000000)">
                    <g id="store" transform="translate(502.000000, 0.000000)">
                        <g id="icon-store">
                            <g id="Shape">
                                <path d="M17.9702809,6.12765957 C17.9702426,6.06531064 17.9602085,6.00242553 17.9313702,5.94494043 L16.3404,2.7630383 L16.3404,1.63405532 C16.3404383,0.732829787 15.6075702,0 14.706383,0 L3.26807234,0 C2.36688511,0 1.63405532,0.732829787 1.63405532,1.63405532 L1.63405532,2.76468511 C1.07808511,3.89956596 0.211480851,5.65448936 0.0793914894,5.88550213 C0.0295276596,5.95332766 0,6.03708511 0,6.12765957 C0,7.26403404 0.671476596,8.23959574 1.63405532,8.70039574 L1.63405532,16.3404383 C1.63405532,17.2416255 2.36688511,17.9744936 3.26811064,17.9744936 L14.706383,17.9744936 C15.6075702,17.9744936 16.3404383,17.2416638 16.3404383,16.3404383 L16.3404383,8.70039574 C17.2955872,8.24311915 17.9617787,7.27847234 17.9718894,6.15328085 C17.9721191,6.14902979 17.973,6.1452 17.9731532,6.14094894 C17.9731532,6.13642979 17.9744936,6.13217872 17.9744936,6.12762128 L17.9702809,6.12762128 L17.9702809,6.12765957 Z M16.9049106,5.71913617 L13.6569064,5.71913617 L13.1629404,3.26807234 L15.6793787,3.26807234 L16.9049106,5.71913617 Z M2.45106383,1.63405532 C2.45106383,1.18367234 2.81768936,0.817046809 3.26807234,0.817046809 L14.706383,0.817046809 C15.156766,0.817046809 15.5233915,1.18367234 15.5233915,1.63405532 L15.5233915,2.45106383 L2.45106383,2.45106383 L2.45106383,1.63405532 Z M12.913966,6.53618298 L12.913966,7.70231489 C12.6040596,8.47202553 11.8561787,8.98724681 11.0297872,8.98724681 C10.379834,8.98724681 9.7812,8.67163404 9.39573191,8.1504766 L9.39573191,6.53618298 L12.913966,6.53618298 L12.913966,6.53618298 Z M9.39573191,5.71913617 L9.39573191,3.26807234 L12.3301915,3.26807234 L12.8305532,5.71913617 L9.39573191,5.71913617 Z M5.15110213,5.71913617 L5.64506809,3.26807234 L8.5787234,3.26807234 L8.5787234,5.71913617 L5.15110213,5.71913617 Z M8.5787234,6.53618298 L8.5787234,8.1504766 C8.19325532,8.67163404 7.59465957,8.98724681 6.94466809,8.98724681 C6.11793191,8.98724681 5.36966809,8.47156596 5.06002979,7.70135745 L5.05413191,6.53618298 L8.5787234,6.53618298 Z M2.29748936,3.26807234 L4.81277872,3.26807234 L4.32482553,5.71913617 L1.08111064,5.71913617 C1.33123404,5.23922553 1.70544255,4.47725106 2.29748936,3.26807234 Z M0.858370213,6.53618298 L4.24348085,6.53618298 L4.24348085,7.60733617 C3.86234043,7.96599574 3.37963404,8.1702383 2.85958723,8.1702383 C1.87326383,8.1702 1.04817447,7.46731915 0.858370213,6.53618298 Z M13.0723277,17.1574468 L9.80425532,17.1574468 L9.80425532,11.4383106 L13.0723277,11.4383106 L13.0723277,17.1574468 L13.0723277,17.1574468 Z M15.5233915,16.3404383 C15.5233915,16.7908213 15.156766,17.1574468 14.706383,17.1574468 L13.8893745,17.1574468 L13.8893745,11.0297872 C13.8893745,10.803983 13.7066553,10.6212638 13.4808511,10.6212638 L9.39573191,10.6212638 C9.16992766,10.6212638 8.98720851,10.803983 8.98720851,11.0297872 L8.98720851,17.1574468 L3.26807234,17.1574468 C2.81768936,17.1574468 2.45106383,16.7908213 2.45106383,16.3404383 L2.45106383,8.9459617 C2.58564255,8.96545532 2.71968511,8.98724681 2.85958723,8.98724681 C3.46557447,8.98724681 4.03965957,8.79893617 4.52194468,8.44866383 C5.03655319,9.2772766 5.95133617,9.80425532 6.94466809,9.80425532 C7.72219149,9.80425532 8.45425532,9.48990638 8.98720851,8.9441617 C9.5202,9.48990638 10.2522638,9.80425532 11.0297872,9.80425532 C12.0231574,9.80425532 12.9379021,9.2772766 13.4525106,8.44866383 C13.934834,8.79893617 14.5088809,8.98724681 15.1148681,8.98724681 C15.2547319,8.98724681 15.3887745,8.96545532 15.5233915,8.9459617 L15.5233915,16.3404383 L15.5233915,16.3404383 Z M15.1149064,8.1702 C14.5944766,8.1702 14.1113872,7.96572766 13.7301319,7.60660851 L13.7252298,6.53614468 L17.1160851,6.53614468 C16.9263191,7.46731915 16.1012298,8.1702 15.1149064,8.1702 Z" fill-rule="nonzero"></path>
                                <path d="M7.76171489,10.6212638 L4.49364255,10.6212638 C4.2678383,10.6212638 4.08511915,10.803983 4.08511915,11.0297872 L4.08511915,14.2978596 C4.08511915,14.5236638 4.2678383,14.706383 4.49364255,14.706383 L7.76171489,14.706383 C7.98751915,14.706383 8.1702383,14.5236638 8.1702383,14.2978596 L8.1702383,11.0297872 C8.1702,10.803983 7.98748085,10.6212638 7.76171489,10.6212638 Z M7.35319149,13.8893745 L4.90212766,13.8893745 L4.90212766,11.4383106 L7.35319149,11.4383106 L7.35319149,13.8893745 Z" fill-rule="nonzero"></path>
                            </g>
                        </g>
                    </g>
                </g>
            </g>
        </g>
    </g>
</svg>