<?xml version="1.0" encoding="UTF-8"?>
<svg width="28px" height="28px" viewBox="0 0 28 28" version="1.1" xmlns="http://www.w3.org/2000/svg" xmlns:xlink="http://www.w3.org/1999/xlink">
    <!-- Generator: Sketch 47.1 (45422) - http://www.bohemiancoding.com/sketch -->
    <title>icon-pos-white</title>
    <desc>Created with Sketch.</desc>
    <defs></defs>
    <g id="Symbols" stroke="none" stroke-width="1" fill="none" fill-rule="evenodd">
        <g id="icon-pos-white" fill-rule="nonzero" fill="#FFFFFF">
            <g id="icon-pos">
                <path d="M27.6667404,19.9866383 L25.4184,13.2416766 L25.4184,10.1673957 C25.4184596,8.76548936 24.2784426,7.62553191 22.8765957,7.62553191 L22.8765957,0.635480851 C22.8765957,0.415174468 22.7623915,0.211012766 22.5749702,0.0949617021 C22.3882043,-0.0210893617 22.1536,-0.0310382979 21.9568851,0.0670212766 L20.9702128,0.560357447 L19.9834809,0.0670212766 C19.8047574,-0.0223404255 19.5937447,-0.0223404255 19.4150213,0.0670212766 L18.4282894,0.560357447 L17.4415574,0.0670212766 C17.2448426,-0.0303829787 17.0108936,-0.0210893617 16.8234723,0.0949617021 C16.6360511,0.211012766 16.5218468,0.415174468 16.5218468,0.635480851 L16.5218468,7.62553191 L8.89631489,7.62553191 L8.89631489,6.35462979 L11.4382979,6.35462979 C12.8401447,6.35462979 13.9801617,5.21467234 13.9801617,3.81276596 L13.9801617,2.54186383 C13.9801617,1.13995745 12.8401447,0 11.4382979,0 L5.08366809,0 C3.68182128,0 2.54186383,1.13995745 2.54186383,2.54186383 L2.54186383,3.81276596 C2.54186383,5.21461277 3.68182128,6.35462979 5.08372766,6.35462979 L7.62553191,6.35462979 L7.62553191,7.62553191 L5.08366809,7.62553191 C3.68182128,7.62553191 2.54180426,8.76548936 2.54180426,10.1673957 L2.54180426,13.2416766 L0.29292766,19.987234 C0.0986553191,20.571183 0,21.1793191 0,21.7949617 L0,25.4184596 C0,26.8203064 1.13995745,27.9603234 2.54186383,27.9603234 L25.4184596,27.9603234 C26.8203064,27.9603234 27.9603234,26.820366 27.9603234,25.4184596 L27.9603234,21.7949617 C27.9602638,21.1793191 27.8616085,20.571183 27.6667404,19.9866383 Z M17.7929277,1.66373617 L18.1441787,1.8393617 C18.3229021,1.9287234 18.5339149,1.9287234 18.7126383,1.8393617 L19.6993702,1.34602553 L20.6861021,1.8393617 C20.8648255,1.9287234 21.0758383,1.9287234 21.2545617,1.8393617 L21.6058128,1.66373617 L21.6058128,7.62553191 L17.7930468,7.62553191 L17.7930468,1.66373617 L17.7929277,1.66373617 Z M5.08366809,5.08366809 C4.38307234,5.08366809 3.81276596,4.5133617 3.81276596,3.81276596 L3.81276596,2.54186383 C3.81276596,1.84126809 4.38307234,1.2709617 5.08366809,1.2709617 L11.4382979,1.2709617 C12.1388936,1.2709617 12.7092,1.84126809 12.7092,2.54186383 L12.7092,3.81276596 C12.7092,4.5133617 12.1388936,5.08366809 11.4382979,5.08366809 L5.08366809,5.08366809 Z M3.81276596,10.1673957 C3.81276596,9.4668 4.38307234,8.89649362 5.08366809,8.89649362 L17.1574468,8.89649362 L22.2411149,8.89649362 L22.8765957,8.89649362 C23.5771915,8.89649362 24.1474979,9.4668 24.1474979,10.1673957 L24.1474979,12.7092596 L3.81276596,12.7092596 L3.81276596,10.1673957 Z M3.63505532,13.9801617 L24.3251489,13.9801617 L26.4432,20.3347915 L1.51664681,20.3347915 L3.63505532,13.9801617 Z M26.6893617,25.4184596 C26.6893617,26.1190553 26.1190553,26.6893617 25.4184596,26.6893617 L2.54186383,26.6893617 C1.84126809,26.6893617 1.2709617,26.1190553 1.2709617,25.4184596 L1.2709617,21.7949617 C1.2709617,21.7313362 1.28347234,21.6690809 1.28615319,21.6056936 L26.6741106,21.6056936 C26.6768511,21.6690809 26.6894213,21.7313362 26.6894213,21.7949617 L26.6894213,25.4184596 L26.6893617,25.4184596 Z" id="Shape"></path>
                <path d="M14.615583,15.2510638 L13.3446809,15.2510638 C12.9934298,15.2510638 12.7092,15.5352936 12.7092,15.8865447 C12.7092,16.2377957 12.9934298,16.5220255 13.3446809,16.5220255 L14.615583,16.5220255 C14.966834,16.5220255 15.2510638,16.2377957 15.2510638,15.8865447 C15.2510638,15.5352936 14.966834,15.2510638 14.615583,15.2510638 Z" id="Shape"></path>
                <path d="M9.53191489,15.2510638 L8.26101277,15.2510638 C7.9097617,15.2510638 7.62553191,15.5352936 7.62553191,15.8865447 C7.62553191,16.2377957 7.9097617,16.5220255 8.26101277,16.5220255 L9.53191489,16.5220255 C9.88316596,16.5220255 10.1673957,16.2377957 10.1673957,15.8865447 C10.1673957,15.5352936 9.88316596,15.2510638 9.53191489,15.2510638 Z" id="Shape"></path>
                <path d="M19.6993106,15.2510638 L18.4284085,15.2510638 C18.0771574,15.2510638 17.7929277,15.5352936 17.7929277,15.8865447 C17.7929277,16.2377957 18.0771574,16.5220255 18.4284085,16.5220255 L19.6993106,16.5220255 C20.0505617,16.5220255 20.3347915,16.2377957 20.3347915,15.8865447 C20.3347915,15.5352936 20.0505617,15.2510638 19.6993106,15.2510638 Z" id="Shape"></path>
                <path d="M6.99005106,17.7929277 L5.71914894,17.7929277 C5.36789787,17.7929277 5.08366809,18.0771574 5.08366809,18.4284085 C5.08366809,18.7796 5.36789787,19.0638298 5.71914894,19.0638298 L6.99005106,19.0638298 C7.34130213,19.0638298 7.62553191,18.7796 7.62553191,18.4283489 C7.62553191,18.0770979 7.34130213,17.7929277 6.99005106,17.7929277 Z" id="Shape"></path>
                <path d="M12.0737787,17.7929277 L10.8028766,17.7929277 C10.4516255,17.7929277 10.1673957,18.0771574 10.1673957,18.4284085 C10.1673957,18.7796596 10.4516255,19.0638894 10.8028766,19.0638894 L12.0737787,19.0638894 C12.4250298,19.0638894 12.7092596,18.7796596 12.7092596,18.4284085 C12.7092,18.0770979 12.4249702,17.7929277 12.0737787,17.7929277 Z" id="Shape"></path>
                <path d="M17.1574468,17.7929277 L15.8865447,17.7929277 C15.5352936,17.7929277 15.2510638,18.0771574 15.2510638,18.4284085 C15.2510638,18.7796596 15.5352936,19.0638894 15.8865447,19.0638894 L17.1574468,19.0638894 C17.5086979,19.0638894 17.7929277,18.7796596 17.7929277,18.4284085 C17.7929277,18.0770979 17.5086979,17.7929277 17.1574468,17.7929277 Z" id="Shape"></path>
                <path d="M22.2411149,17.7929277 L20.9702128,17.7929277 C20.6189617,17.7929277 20.3347319,18.0771574 20.3347319,18.4284085 C20.3347319,18.7796596 20.6189617,19.0638894 20.9702128,19.0638894 L22.2411149,19.0638894 C22.592366,19.0638894 22.8765957,18.7796596 22.8765957,18.4284085 C22.8765957,18.0770979 22.592366,17.7929277 22.2411149,17.7929277 Z" id="Shape"></path>
                <path d="M13.9801617,22.8765957 C13.279566,22.8765957 12.7092596,23.4469021 12.7092596,24.1474979 C12.7092596,24.8480936 13.279566,25.4184 13.9801617,25.4184 C14.6807574,25.4184 15.2510638,24.8481532 15.2510638,24.1474979 C15.2510638,23.4468426 14.6807574,22.8765957 13.9801617,22.8765957 Z" id="Shape"></path>
            </g>
        </g>
    </g>
</svg>