<?xml version="1.0" encoding="UTF-8"?>
<svg width="28px" height="28px" viewBox="0 0 28 28" version="1.1" xmlns="http://www.w3.org/2000/svg" xmlns:xlink="http://www.w3.org/1999/xlink">
    <!-- Generator: Sketch 47.1 (45422) - http://www.bohemiancoding.com/sketch -->
    <title>icon-articulos-white</title>
    <desc>Created with Sketch.</desc>
    <defs></defs>
    <g id="Symbols" stroke="none" stroke-width="1" fill="none" fill-rule="evenodd">
        <g id="icon-articulos-white" fill-rule="nonzero" fill="#FFFFFF">
            <g id="icon-articulos" transform="translate(0.000000, 3.000000)">
                <path d="M21.5412788,15.4634158 C21.2194698,15.4634158 20.9590643,15.7294352 20.9590643,16.0581818 L20.9590643,17.2476582 C20.9590643,17.5764048 21.2194698,17.8424242 21.5412788,17.8424242 C21.8630877,17.8424242 22.1234932,17.5764048 22.1234932,17.2476582 L22.1234932,16.0581818 C22.1234386,15.7294352 21.8630877,15.4634158 21.5412788,15.4634158 Z" id="Shape"></path>
                <path d="M18.0481014,15.4634158 C17.7262924,15.4634158 17.4658869,15.7294352 17.4658869,16.0581818 L17.4658869,17.2476582 C17.4658869,17.5764048 17.7262924,17.8424242 18.0481014,17.8424242 C18.3699103,17.8424242 18.6303158,17.5764048 18.6303158,17.2476582 L18.6303158,16.0581818 C18.6302612,15.7294352 18.3699103,15.4634158 18.0481014,15.4634158 Z" id="Shape"></path>
                <path d="M12.2261209,15.4634158 C11.9043119,15.4634158 11.6439064,15.7294352 11.6439064,16.0581818 L11.6439064,17.2476582 C11.6439064,17.5764048 11.9043119,17.8424242 12.2261209,17.8424242 C12.5479298,17.8424242 12.8083353,17.5764048 12.8083353,17.2476582 L12.8083353,16.0581818 C12.8083353,15.7294352 12.5479298,15.4634158 12.2261209,15.4634158 Z" id="Shape"></path>
                <path d="M9.89731774,15.4634158 C9.57550877,15.4634158 9.31510331,15.7294352 9.31510331,16.0581818 L9.31510331,17.2476582 C9.31510331,17.5764048 9.57550877,17.8424242 9.89731774,17.8424242 C10.2191267,17.8424242 10.4795322,17.5764048 10.4795322,17.2476582 L10.4795322,16.0581818 C10.4795322,15.7294352 10.2191267,15.4634158 9.89731774,15.4634158 Z" id="Shape"></path>
                <path d="M7.5685692,15.4634158 C7.24676023,15.4634158 6.98635478,15.7294352 6.98635478,16.0581818 L6.98635478,17.2476582 C6.98635478,17.5764048 7.24676023,17.8424242 7.5685692,17.8424242 C7.89037817,17.8424242 8.15078363,17.5764048 8.15078363,17.2476582 L8.15078363,16.0581818 C8.15072904,15.7294352 7.89037817,15.4634158 7.5685692,15.4634158 Z" id="Shape"></path>
                <path d="M25.616616,0 L23.8700273,0 C23.5482183,0 23.2878129,0.266019394 23.2878129,0.594766061 C23.2878129,0.923512727 23.5482183,1.18953212 23.8700273,1.18953212 L25.616616,1.18953212 C26.2590877,1.18953212 26.7809903,1.72329939 26.7809903,2.37900848 L26.7809903,4.16325091 C26.7809903,4.49199758 27.0413957,4.75801697 27.3632047,4.75801697 C27.6850136,4.75801697 27.9454191,4.49199758 27.9454191,4.16325091 L27.9454191,2.37900848 C27.9454191,1.06692121 26.9004133,0 25.616616,0 Z" id="Shape"></path>
                <path d="M0.582214425,4.75796121 C0.904023392,4.75796121 1.16442885,4.49194182 1.16442885,4.16319515 L1.16442885,2.37895273 C1.16442885,1.72324364 1.68638596,1.18947636 2.32880312,1.18947636 L4.07539181,1.18947636 C4.39720078,1.18947636 4.65760624,0.92345697 4.65760624,0.594710303 C4.65755166,0.266019394 4.39720078,0 4.07539181,0 L2.32880312,0 C1.04500585,0 0,1.06692121 0,2.37900848 L0,4.16325091 C0,4.49199758 0.260405458,4.75796121 0.582214425,4.75796121 Z" id="Shape"></path>
                <path d="M27.3632047,16.6529479 C27.0413957,16.6529479 26.7809903,16.9189673 26.7809903,17.2477139 L26.7809903,19.0319564 C26.7809903,19.6876655 26.2590331,20.2214327 25.616616,20.2214327 L23.8700273,20.2214327 C23.5482183,20.2214327 23.2878129,20.4874521 23.2878129,20.8161988 C23.2878129,21.1449455 23.5482183,21.4109648 23.8700273,21.4109648 L25.616616,21.4109648 C26.9004133,21.4109091 27.9454191,20.3439879 27.9454191,19.0319006 L27.9454191,17.2476582 C27.9454191,16.9189673 27.6850136,16.6529479 27.3632047,16.6529479 Z" id="Shape"></path>
                <path d="M4.07539181,20.2214327 L2.32880312,20.2214327 C1.68633138,20.2214327 1.16442885,19.6876655 1.16442885,19.0319564 L1.16442885,17.2477139 C1.16442885,16.9189673 0.904023392,16.6529479 0.582214425,16.6529479 C0.260405458,16.6529479 0,16.9189673 0,17.2476582 L0,19.0319006 C0,20.3439879 1.04500585,21.4109091 2.32880312,21.4109091 L4.07539181,21.4109091 C4.39720078,21.4109091 4.65760624,21.1448897 4.65760624,20.816143 C4.65755166,20.4874521 4.39720078,20.2214327 4.07539181,20.2214327 Z" id="Shape"></path>
                <path d="M27.3632047,9.51597818 L0.582214425,9.51597818 C0.260405458,9.51597818 0,9.78199758 0,10.1106885 C0,10.4394352 0.260405458,10.7054545 0.582214425,10.7054545 L3.49317739,10.7054545 L3.49317739,17.2476582 C3.49317739,17.5764048 3.75358285,17.8424242 4.07539181,17.8424242 C4.39720078,17.8424242 4.65760624,17.5764048 4.65760624,17.2476582 L4.65760624,10.7054545 L6.98635478,10.7054545 L6.98635478,13.6791733 C6.98635478,14.00792 7.24676023,14.2739394 7.5685692,14.2739394 C7.89037817,14.2739394 8.15078363,14.00792 8.15078363,13.6791733 L8.15078363,10.7054545 L9.31515789,10.7054545 L9.31515789,13.6791733 C9.31515789,14.00792 9.57556335,14.2739394 9.89737232,14.2739394 C10.2191813,14.2739394 10.4795867,14.00792 10.4795867,13.6791733 L10.4795867,10.7054545 L11.643961,10.7054545 L11.643961,13.6791733 C11.643961,14.00792 11.9043665,14.2739394 12.2261754,14.2739394 C12.5479844,14.2739394 12.8083899,14.00792 12.8083899,13.6791733 L12.8083899,10.7054545 L15.137193,10.7054545 L15.137193,17.2476582 C15.137193,17.5764048 15.3975984,17.8424242 15.7194074,17.8424242 C16.0412164,17.8424242 16.3016218,17.5764048 16.3016218,17.2476582 L16.3016218,10.7054545 L17.4658869,10.7054545 L17.4658869,13.6791733 C17.4658869,14.00792 17.7262924,14.2739394 18.0481014,14.2739394 C18.3699103,14.2739394 18.6303158,14.00792 18.6303158,13.6791733 L18.6303158,10.7054545 L20.9590643,10.7054545 L20.9590643,13.6791733 C20.9590643,14.00792 21.2194698,14.2739394 21.5412788,14.2739394 C21.8630877,14.2739394 22.1234932,14.00792 22.1234932,13.6791733 L22.1234932,10.7054545 L23.2878674,10.7054545 L23.2878674,17.2476582 C23.2878674,17.5764048 23.5482729,17.8424242 23.8700819,17.8424242 C24.1918908,17.8424242 24.4522963,17.5764048 24.4522963,17.2476582 L24.4522963,10.7054545 L27.3632593,10.7054545 C27.6850682,10.7054545 27.9454737,10.4394352 27.9454737,10.1106885 C27.9454191,9.78199758 27.6850136,9.51597818 27.3632047,9.51597818 Z" id="Shape"></path>
                <path d="M4.07539181,3.56848485 C3.75358285,3.56848485 3.49317739,3.83450424 3.49317739,4.16325091 L3.49317739,7.73173576 C3.49317739,8.06048242 3.75358285,8.32650182 4.07539181,8.32650182 C4.39720078,8.32650182 4.65760624,8.06048242 4.65760624,7.73173576 L4.65760624,4.16325091 C4.65755166,3.83450424 4.39720078,3.56848485 4.07539181,3.56848485 Z" id="Shape"></path>
                <path d="M7.5685692,8.32644606 C7.89037817,8.32644606 8.15078363,8.06042667 8.15078363,7.73168 L8.15078363,4.16319515 C8.15078363,3.83444848 7.89037817,3.56842909 7.5685692,3.56842909 C7.24676023,3.56842909 6.98635478,3.83444848 6.98635478,4.16319515 L6.98635478,7.73168 C6.98635478,8.06048242 7.24676023,8.32644606 7.5685692,8.32644606 Z" id="Shape"></path>
                <path d="M9.89731774,8.32644606 C10.2191267,8.32644606 10.4795322,8.06042667 10.4795322,7.73168 L10.4795322,4.16319515 C10.4795322,3.83444848 10.2191267,3.56842909 9.89731774,3.56842909 C9.57550877,3.56842909 9.31510331,3.83444848 9.31510331,4.16319515 L9.31510331,7.73168 C9.31515789,8.06048242 9.57556335,8.32644606 9.89731774,8.32644606 Z" id="Shape"></path>
                <path d="M12.2261209,8.32644606 C12.5479298,8.32644606 12.8083353,8.06042667 12.8083353,7.73168 L12.8083353,4.16319515 C12.8083353,3.83444848 12.5479298,3.56842909 12.2261209,3.56842909 C11.9043119,3.56842909 11.6439064,3.83444848 11.6439064,4.16319515 L11.6439064,7.73168 C11.6439064,8.06048242 11.9043119,8.32644606 12.2261209,8.32644606 Z" id="Shape"></path>
                <path d="M15.7192982,8.32644606 C16.0411072,8.32644606 16.3015127,8.06042667 16.3015127,7.73168 L16.3015127,4.16319515 C16.3015127,3.83444848 16.0411072,3.56842909 15.7192982,3.56842909 C15.3974893,3.56842909 15.1370838,3.83444848 15.1370838,4.16319515 L15.1370838,7.73168 C15.1370838,8.06048242 15.3974893,8.32644606 15.7192982,8.32644606 Z" id="Shape"></path>
                <path d="M18.0481014,8.32644606 C18.3699103,8.32644606 18.6303158,8.06042667 18.6303158,7.73168 L18.6303158,4.16319515 C18.6303158,3.83444848 18.3699103,3.56842909 18.0481014,3.56842909 C17.7262924,3.56842909 17.4658869,3.83444848 17.4658869,4.16319515 L17.4658869,7.73168 C17.4658869,8.06048242 17.7262924,8.32644606 18.0481014,8.32644606 Z" id="Shape"></path>
                <path d="M21.5412788,8.32644606 C21.8630877,8.32644606 22.1234932,8.06042667 22.1234932,7.73168 L22.1234932,4.16319515 C22.1234932,3.83444848 21.8630877,3.56842909 21.5412788,3.56842909 C21.2194698,3.56842909 20.9590643,3.83450424 20.9590643,4.16325091 L20.9590643,7.73173576 C20.9590643,8.06048242 21.2194698,8.32644606 21.5412788,8.32644606 Z" id="Shape"></path>
                <path d="M23.8700273,8.32644606 C24.1918363,8.32644606 24.4522417,8.06042667 24.4522417,7.73168 L24.4522417,4.16319515 C24.4522417,3.83444848 24.1918363,3.56842909 23.8700273,3.56842909 C23.5482183,3.56842909 23.2878129,3.83444848 23.2878129,4.16319515 L23.2878129,7.73168 C23.2878674,8.06048242 23.5482729,8.32644606 23.8700273,8.32644606 Z" id="Shape"></path>
            </g>
        </g>
    </g>
</svg>