<?xml version="1.0" encoding="UTF-8"?>
<svg width="28px" height="28px" viewBox="0 0 28 28" version="1.1" xmlns="http://www.w3.org/2000/svg" xmlns:xlink="http://www.w3.org/1999/xlink">
    <!-- Generator: Sketch 47.1 (45422) - http://www.bohemiancoding.com/sketch -->
    <title>icon-dashboard-white</title>
    <desc>Created with Sketch.</desc>
    <defs></defs>
    <g id="Symbols" stroke="none" stroke-width="1" fill="none" fill-rule="evenodd">
        <g id="icon-dashboard-white" fill-rule="nonzero" fill="#FFFFFF">
            <g id="icon-dashboard" transform="translate(0.000000, 3.000000)">
                <ellipse id="Oval" cx="14" cy="2.98129514" rx="1" ry="1"></ellipse>
                <path d="M15.1214766,8.65497986 L14.5719766,5.84653611 C14.5172891,5.56702222 14.2780313,5.36672257 14.0000547,5.36672257 C13.7220781,5.36672257 13.4828203,5.56702222 13.4281328,5.84653611 L12.8786328,8.65497986 C12.1600937,9.06200799 11.6667578,9.83598194 11.6667578,10.7333333 C11.6666484,12.0482226 12.7136953,13.1185372 14,13.1185372 C15.2863047,13.1185372 16.3333516,12.0482226 16.3333516,10.7333333 C16.3333516,9.83598194 15.8400156,9.06200799 15.1214766,8.65497986 Z M14,11.9259073 C13.3563281,11.9259073 12.8333516,11.391309 12.8333516,10.7333333 C12.8333516,10.0753576 13.3562734,9.54075938 14,9.54075938 C14.6437266,9.54075938 15.1666484,10.0753576 15.1666484,10.7333333 C15.1666484,11.391309 14.6436719,11.9259073 14,11.9259073 Z" id="Shape"></path>
                <ellipse id="Oval" cx="18.0835156" cy="4.17426042" rx="1" ry="1"></ellipse>
                <ellipse id="Oval" cx="9.91648438" cy="4.17426042" rx="1" ry="1"></ellipse>
                <ellipse id="Oval" cx="7.58351562" cy="6.55907292" rx="1" ry="1"></ellipse>
                <ellipse id="Oval" cx="20.4164844" cy="6.55907292" rx="1" ry="1"></ellipse>
                <ellipse id="Oval" cx="7.58351562" cy="13.7146285" rx="1" ry="1"></ellipse>
                <ellipse id="Oval" cx="20.4164844" cy="13.7146285" rx="1" ry="1"></ellipse>
                <ellipse id="Oval" cx="21.5835156" cy="10.1368507" rx="1" ry="1"></ellipse>
                <ellipse id="Oval" cx="6.41648438" cy="10.1368507" rx="1" ry="1"></ellipse>
                <path d="M15.75,17.8888889 L12.25,17.8888889 C11.9275625,17.8888889 11.6666484,18.155601 11.6666484,18.4852038 C11.6666484,18.8148066 11.9275625,19.0815188 12.25,19.0815188 L15.75,19.0815188 C16.0724375,19.0815188 16.3333516,18.8148066 16.3333516,18.4852038 C16.3333516,18.155601 16.0724375,17.8888889 15.75,17.8888889 Z" id="Shape"></path>
                <path d="M23.1639297,5.50860382 C21.3658594,2.22638403 17.9346016,0 14,0 C10.0674219,0 6.63775,2.22414792 4.83896875,5.50368438 C1.89727344,6.84948785 0,9.81350903 0,13.1185372 C0,17.7211806 3.6640625,21.4666667 8.16664844,21.4666667 C9.10251563,21.4666667 10.0158516,21.3002441 10.8868047,20.9848965 C11.8709063,21.2977844 12.9164219,21.4666667 14,21.4666667 C15.0840156,21.4666667 16.1299688,21.2977285 17.1143984,20.9845611 C17.9865547,21.3004118 18.8992344,21.4666667 19.8332969,21.4666667 C24.3359375,21.4666667 28,17.7211806 28,13.1185372 C28,9.81071389 26.1045859,6.85412778 23.1639297,5.50860382 Z M14,1.19257396 C19.1463125,1.19257396 23.3333516,5.47265833 23.3333516,10.7333333 C23.3333516,12.4719097 22.8686719,14.098401 22.0705078,15.5036851 L5.92954688,15.5036851 C5.13138281,14.098401 4.66664844,12.4719097 4.66664844,10.7333333 C4.66664844,5.47265833 8.8536875,1.19257396 14,1.19257396 Z M8.16664844,20.2740927 C4.30664062,20.2740927 1.16664844,17.0643229 1.16664844,13.1185372 C1.16664844,10.8009757 2.26384375,8.68807431 4.03921875,7.35988021 C3.69403125,8.42208889 3.5,9.55406424 3.5,10.7333333 C3.5,14.8214476 5.74825781,18.3806656 9.04613281,20.1926424 C8.75470312,20.2299854 8.46414844,20.2740927 8.16664844,20.2740927 Z M14,20.2740927 C11.0603828,20.2740927 8.43789844,18.8743431 6.72579688,16.6963149 L21.2742578,16.6963149 C19.5621016,18.8743431 16.9396172,20.2740927 14,20.2740927 Z M19.8333516,20.2740927 C19.5363984,20.2740927 19.2459531,20.2297618 18.9545781,20.192251 C22.252125,18.3802184 24.5,14.8211681 24.5,10.7333333 C24.5,9.55305799 24.3055859,8.42013229 23.9597969,7.35708507 C25.7362109,8.68516736 26.8332969,10.7975097 26.8332969,13.1184813 C26.8333516,17.0643229 23.6933594,20.2740927 19.8333516,20.2740927 Z" id="Shape"></path>
            </g>
        </g>
    </g>
</svg>