<?xml version="1.0" encoding="UTF-8"?>
<svg width="28px" height="28px" viewBox="0 0 28 28" version="1.1" xmlns="http://www.w3.org/2000/svg" xmlns:xlink="http://www.w3.org/1999/xlink">
    <!-- Generator: Sketch 47.1 (45422) - http://www.bohemiancoding.com/sketch -->
    <title>icon-soporte-white</title>
    <desc>Created with Sketch.</desc>
    <defs></defs>
    <g id="Symbols" stroke="none" stroke-width="1" fill="none" fill-rule="evenodd">
        <g id="icon-soporte-white" fill-rule="nonzero" fill="#FFFFFF">
            <g id="icon-soporte">
                <path d="M13.9801617,15.2510638 C18.1851064,15.2510638 21.6056936,11.8304766 21.6056936,7.62553191 C21.6056936,3.42058723 18.1851064,0 13.9801617,0 C9.77521702,0 6.35462979,3.42058723 6.35462979,7.62553191 C6.35462979,11.8304766 9.77515745,15.2510638 13.9801617,15.2510638 Z M13.9801617,1.27090213 C17.4838553,1.27090213 20.3347915,4.12177872 20.3347915,7.62553191 C20.3347915,11.1292851 17.4839149,13.9801617 13.9801617,13.9801617 C10.4764085,13.9801617 7.62553191,11.1292255 7.62553191,7.62553191 C7.62553191,4.1218383 10.4764085,1.27090213 13.9801617,1.27090213 Z" id="Shape"></path>
                <path d="M24.8326043,19.3877957 C23.631166,18.7715574 21.7173362,17.9071319 19.4287234,17.2896426 C19.1110128,17.2002809 18.7759064,17.3771574 18.6653957,17.6886723 L16.0607404,24.9552085 L15.2721532,21.0112 L16.4897362,17.3585106 C16.5542553,17.1648936 16.5220255,16.9514383 16.4016255,16.7857021 C16.2824766,16.6200255 16.0913617,16.521966 15.8865447,16.521966 L12.0737787,16.521966 C11.8689617,16.521966 11.6778468,16.6200255 11.5586979,16.7857021 C11.4382979,16.9513787 11.4060085,17.1648936 11.4705872,17.3585106 L12.6881702,21.0112 L11.899583,24.9552085 L9.29492766,17.6886723 C9.1844766,17.3771574 8.84811915,17.2008766 8.5316,17.2896426 C6.24292766,17.9071319 4.32909787,18.7715574 3.12771915,19.3877957 C1.19893617,20.3782213 0,22.3329787 0,24.4882043 L0,25.4184596 C0,26.8203064 1.14061277,27.9603234 2.54186383,27.9603234 L25.4184596,27.9603234 C26.8197106,27.9603234 27.9603234,26.820366 27.9603234,25.4184596 L27.9603234,24.4882043 C27.9602638,22.3329787 26.7613277,20.3782213 24.8326043,19.3877957 Z M2.54186383,26.6893617 C1.84061277,26.6893617 1.2709617,26.1190553 1.2709617,25.4184596 L1.2709617,24.4882043 C1.2709617,22.8114213 2.20550638,21.2904255 3.70857021,20.5184596 C4.7548766,19.9816936 6.36708085,19.2475574 8.29830638,18.676 L11.1714638,26.6893617 L2.54186383,26.6893617 Z M15.0053191,17.7929277 L14.0123915,20.7691489 C13.9913021,20.8336681 13.9801021,20.9013447 13.9801021,20.968366 C13.9801021,20.9013447 13.9689021,20.8337277 13.9478128,20.7691489 L12.9548851,17.7929277 L15.0053191,17.7929277 L15.0053191,17.7929277 Z M12.8494383,26.6893617 L13.9677106,21.0949617 C13.9764085,21.0539745 13.9801021,21.0130468 13.9801021,20.9720596 C13.9801021,21.0130468 13.9838553,21.0539745 13.9924936,21.0949617 L15.1108255,26.6893617 L12.8494383,26.6893617 Z M26.6893617,25.4184596 C26.6893617,26.1190553 26.1196511,26.6893617 25.4184596,26.6893617 L16.7888,26.6893617 L19.662017,18.676 C21.5932426,19.2475574 23.2054468,19.9816936 24.2517532,20.5184596 C25.7560085,21.2904255 26.6893617,22.8114809 26.6893617,24.4882043 L26.6893617,25.4184596 Z" id="Shape"></path>
            </g>
        </g>
    </g>
</svg>