<?xml version="1.0" encoding="UTF-8"?>
<svg width="28px" height="28px" viewBox="0 0 28 28" version="1.1" xmlns="http://www.w3.org/2000/svg" xmlns:xlink="http://www.w3.org/1999/xlink">
    <!-- Generator: Sketch 47.1 (45422) - http://www.bohemiancoding.com/sketch -->
    <title>icon-apps-white</title>
    <desc>Created with Sketch.</desc>
    <defs></defs>
    <g id="Symbols" stroke="none" stroke-width="1" fill="none" fill-rule="evenodd">
        <g id="icon-apps-white" fill-rule="nonzero" fill="#FFFFFF">
            <g id="icon-apps" transform="translate(0.000000, 5.000000)">
                <path d="M21.5833516,5.8515625 C21.5415703,5.8515625 21.5003359,5.86096875 21.4585,5.86184375 C20.0566406,2.3568125 16.6551875,0.0182109375 12.8333516,0.0182109375 C7.98076563,0.0182109375 3.98502344,3.71027344 3.56026563,8.48864844 C1.4966875,9.19646875 0,11.1343203 0,13.4349141 C0,16.3299609 2.35500781,18.6849141 5.25,18.6849141 L21.5833516,18.6849141 C25.1215234,18.6849141 28,15.8064375 28,12.2682656 C28,8.73009375 25.1215234,5.8515625 21.5833516,5.8515625 Z M21.5833516,17.5182109 L5.25,17.5182109 C2.99867969,17.5182109 1.16664844,15.6861797 1.16664844,13.4348594 C1.16664844,11.1835391 2.99867969,9.3515625 5.25,9.3515625 C5.5724375,9.3515625 5.83335156,9.09064844 5.83335156,8.76821094 C5.83335156,8.44577344 5.5724375,8.18485937 5.25,8.18485937 C5.08079687,8.18485937 4.921,8.21903906 4.75589844,8.23478906 C5.28866406,4.230625 8.70920313,1.18485937 12.8333516,1.18485937 C16.0721094,1.18485937 18.9610312,3.10663281 20.2538984,6.01146875 C19.3513906,6.20571875 18.4838281,6.57688281 17.7352656,7.13327344 C17.4766484,7.32582812 17.4231094,7.69097656 17.6150625,7.94959375 C17.8064687,8.20651562 18.1710703,8.26065625 18.4313828,8.06979687 C19.3434063,7.39189062 20.4628047,7.01821094 21.5832969,7.01821094 C24.4783437,7.01821094 26.8332969,9.37321875 26.8332969,12.2682109 C26.8333516,15.1632578 24.4783437,17.5182109 21.5833516,17.5182109 Z" id="Shape"></path>
            </g>
        </g>
    </g>
</svg>