<?xml version="1.0" encoding="UTF-8"?>
<svg width="15px" height="18px" viewBox="0 0 15 18" version="1.1" xmlns="http://www.w3.org/2000/svg" xmlns:xlink="http://www.w3.org/1999/xlink">
    <!-- Generator: Sketch 47.1 (45422) - http://www.bohemiancoding.com/sketch -->
    <title>icon-notification</title>
    <desc>Created with Sketch.</desc>
    <defs></defs>
    <g id="Articulos" stroke="none" stroke-width="1" fill="none" fill-rule="evenodd">
        <g id="Artículos---[Desktop]" transform="translate(-963.000000, -41.000000)" fill-rule="nonzero" fill="#000000">
            <g id="header" transform="translate(70.000000, 1.000000)">
                <g id="ui-control" transform="translate(270.000000, 40.000000)">
                    <g id="notification" transform="translate(623.000000, 0.000000)">
                        <g id="icon-notification">
                            <g id="alarm" transform="translate(0.000000, 0.039130)">
                                <path d="M13.5716666,12.3737265 C13.1249455,11.7071024 12.5136081,10.7942676 12.5136081,8.19604743 L12.5136081,7.02518351 C12.5136081,4.55495336 10.8646658,2.46503444 8.61071621,1.79131203 L8.61071621,1.56116409 C8.61071621,0.700140034 7.91021028,0 7.04958871,0 C6.18896714,0 5.48842462,0.700140034 5.48842462,1.56116409 L5.48842462,1.79131203 C3.23454816,2.46503444 1.58553269,4.55495336 1.58553269,7.02518351 L1.58553269,8.19604743 C1.58553269,10.7942676 0.97419537,11.7071024 0.527474195,12.3737265 C0.269042575,12.7598189 0.0243686053,13.1245796 0.0243686053,13.6600669 C0.0243686053,14.9324666 2.67692422,15.3789683 4.82750853,15.5327539 C5.12904257,16.4980946 6.01417911,17.1726586 7.04955212,17.1726586 C8.08492513,17.1726586 8.97006166,16.4980946 9.27159571,15.5327539 C11.42218,15.3789683 14.0747356,14.9324666 14.0747356,13.6600669 C14.0747722,13.1245796 13.8300617,12.7598189 13.5716666,12.3737265 Z M6.26898837,1.56116409 C6.26898837,1.1308716 6.61889373,0.780600339 7.04955212,0.780600339 C7.4802105,0.780600339 7.83015246,1.13083501 7.83015246,1.56116409 L7.83015246,1.62351259 C7.57450164,1.58670356 7.31526505,1.56116409 7.04958871,1.56116409 C6.78391237,1.56116409 6.52467578,1.58670356 6.26902496,1.62351259 L6.26902496,1.56116409 L6.26898837,1.56116409 Z M7.04958871,16.3920949 C6.46620576,16.3920949 5.95384303,16.0701439 5.68769102,15.5817473 C6.24074128,15.6050914 6.72097843,15.6115311 7.04958871,15.6115311 C7.37827216,15.6115311 7.85847273,15.6050914 8.41155957,15.5817473 C8.14537098,16.0701439 7.63297165,16.3920949 7.04958871,16.3920949 Z M7.04958871,14.8309308 C3.47523388,14.8309308 0.804968944,14.2127146 0.804968944,13.6600669 C0.804968944,13.3745956 0.92542157,13.1820982 1.17620599,12.8082268 C1.64956431,12.100842 2.36613303,11.0317335 2.36613303,8.19604743 L2.36613303,7.02518351 C2.36613303,4.44258701 4.46699221,2.34172784 7.04958871,2.34172784 C9.63218521,2.34172784 11.7330444,4.44258701 11.7330444,7.02518351 L11.7330444,8.19604743 C11.7330444,11.0317335 12.4495765,12.100842 12.9229714,12.8082268 C13.1737558,13.1821348 13.2942085,13.3745956 13.2942085,13.6600669 C13.2941719,14.2127512 10.6239069,14.8309308 7.04958871,14.8309308 Z" id="Shape"></path>
                            </g>
                        </g>
                    </g>
                </g>
            </g>
        </g>
    </g>
</svg>