<?xml version="1.0" encoding="UTF-8"?>
<svg width="9px" height="6px" viewBox="0 0 9 6" version="1.1" xmlns="http://www.w3.org/2000/svg" xmlns:xlink="http://www.w3.org/1999/xlink">
    <!-- Generator: Sketch 47.1 (45422) - http://www.bohemiancoding.com/sketch -->
    <title>icon-chevron-white</title>
    <desc>Created with Sketch.</desc>
    <defs></defs>
    <g id="Symbols" stroke="none" stroke-width="1" fill="none" fill-rule="evenodd">
        <g id="icon-chevron-white" fill-rule="nonzero" fill="#FFFFFF">
            <g id="icon-chevron">
                <path d="M8.78262472,0.651296629 L8.34963371,0.218164045 C8.19958652,0.0757820225 8.02433933,0.00457078652 7.82429663,0.00457078652 C7.62012809,0.00457078652 7.44696404,0.0757820225 7.30452135,0.218164045 L4.49817978,3.02458652 L1.69185843,0.218244944 C1.54943596,0.0758629213 1.37623146,0.00465168539 1.17214382,0.00465168539 C0.972,0.00465168539 0.796793258,0.0758629213 0.646725843,0.218244944 L0.219417978,0.651377528 C0.0731123596,0.797582022 0,0.972788764 0,1.17683596 C0,1.38468539 0.0731932584,1.55791011 0.219397753,1.69646966 L3.97844494,5.45553708 C4.11708539,5.6017618 4.29022921,5.67493483 4.49815955,5.67493483 C4.70218652,5.67493483 4.87737303,5.60178202 5.02353708,5.45553708 L8.78260449,1.69646966 C8.92504719,1.55400674 8.9963191,1.38080225 8.9963191,1.17683596 C8.99633933,0.976591011 8.92506742,0.801485393 8.78262472,0.651296629 Z" id="Shape"></path>
            </g>
        </g>
    </g>
</svg>