<?xml version="1.0" encoding="UTF-8"?>
<svg width="28px" height="28px" viewBox="0 0 28 28" version="1.1" xmlns="http://www.w3.org/2000/svg" xmlns:xlink="http://www.w3.org/1999/xlink">
    <!-- Generator: Sketch 47.1 (45422) - http://www.bohemiancoding.com/sketch -->
    <title>icon-marketing-white</title>
    <desc>Created with Sketch.</desc>
    <defs></defs>
    <g id="Symbols" stroke="none" stroke-width="1" fill="none" fill-rule="evenodd">
        <g id="icon-marketing-white" fill-rule="nonzero" fill="#FFFFFF">
            <g id="icon-marketing" transform="translate(0.000000, 3.000000)">
                <path d="M26.5655038,4.17142564 C26.3773814,3.90558161 26.0091975,3.84245659 25.7432446,4.03063342 C25.4773461,4.21875579 25.4142755,4.5869397 25.6024523,4.85289266 C26.3246592,5.87356817 26.7063505,7.07544898 26.7063505,8.32852697 C26.7063505,9.58127816 26.3248226,10.7832679 25.602997,11.8044336 C25.4149291,12.07055 25.478163,12.4386249 25.7442249,12.6266384 C25.8476541,12.6997305 25.9664969,12.7348605 26.0841959,12.7348605 C26.2692683,12.7348605 26.4515084,12.6479887 26.5664297,12.4854104 C27.4298101,11.2639767 27.8861185,9.82653439 27.8861185,8.3284725 C27.8861185,6.83008382 27.4294833,5.39253263 26.5655038,4.17142564 Z" id="Shape"></path>
                <path d="M21.054673,4.55039363 L21.054673,1.74255561 C21.054673,1.10890893 20.7252683,0.545576658 20.173537,0.23577931 C19.6178299,-0.0761966401 18.9603275,-0.063778603 18.414424,0.269003006 C15.559855,2.00954341 12.2721797,2.929513 8.90672821,2.929513 C8.90667374,2.929513 8.90661927,2.929513 8.90661927,2.929513 L8.90651034,2.929513 L4.60028364,2.929513 C3.54872644,2.929513 2.68382104,3.7415328 2.59836534,4.77141291 L1.65459452,4.77141291 C0.742250044,4.77135844 0,5.51360849 0,6.42595296 L0,10.2331706 C0,11.1455151 0.742250044,11.8877652 1.65459452,11.8877652 L2.59825641,11.8877652 C2.66274306,12.6640559 3.1699763,13.3160573 3.86636676,13.5902889 L6.36119399,20.4763629 C6.52475261,20.9278239 6.95747763,21.2311399 7.43796852,21.2311399 L10.6826709,21.2311399 C11.0561379,21.2311399 11.4070019,21.0485185 11.621322,20.7426971 C11.8356421,20.4367123 11.8874928,20.0445093 11.7600446,19.6938631 L9.60279187,13.7432813 C12.7243487,13.8611438 15.7571275,14.769948 18.414424,16.3901751 C18.6970433,16.5625026 19.009455,16.6488842 19.3223024,16.6488842 C19.6136905,16.6488842 19.9055144,16.5738313 20.173537,16.4233443 C20.7252683,16.1135469 21.054673,15.5502691 21.054673,14.9165135 L21.054673,12.1066058 C22.9660704,11.9103137 24.4619537,10.2908492 24.4619537,8.3284725 C24.4619537,6.36609584 22.9660704,4.74668576 21.054673,4.55039363 Z M2.59068576,10.7079972 L1.65454005,10.7079972 C1.39272644,10.7079972 1.17971353,10.4950387 1.17971353,10.2331706 L1.17971353,6.42595296 C1.17971353,6.16413935 1.39272644,5.95112644 1.65454005,5.95112644 L2.59068576,5.95112644 L2.59068576,10.7079972 Z M10.6347961,20.0513719 L7.46204209,20.0513719 L5.17162228,13.7296651 L8.34296021,13.7296651 L10.6347961,20.0513719 Z M19.5959349,15.394608 C19.5100435,15.4427551 19.2830331,15.5380145 19.0286267,15.3828435 C15.9891487,13.5295059 12.4890051,12.5498971 8.90672821,12.5498971 L4.60017471,12.5498971 C4.14272255,12.5498971 3.77050822,12.1776828 3.77050822,11.7202306 L3.77050822,4.93894748 C3.77050822,4.48149531 4.14272255,4.10933546 4.60017471,4.10933546 L8.16420584,4.10933546 L8.16420584,10.2666667 C8.16420584,10.5924223 8.42830698,10.8565779 8.75411706,10.8565779 C9.07992714,10.8565779 9.34402829,10.5924223 9.34402829,10.2666667 L9.34402829,4.10383448 C12.7733128,4.02741998 16.1128934,3.05412909 19.0286267,1.27628011 C19.2830875,1.12110911 19.5102069,1.21631406 19.5959349,1.26451565 C19.6798111,1.31157347 19.874905,1.45247462 19.874905,1.74255561 L19.874905,14.9165135 L19.8749595,14.9165135 C19.874905,15.2067579 19.6798111,15.3476046 19.5959349,15.394608 Z M21.054673,10.9176332 L21.054673,5.73942069 C22.3136877,5.92874129 23.2821857,7.01755261 23.2821857,8.32852697 C23.2821857,9.63950133 22.3137422,10.7283126 21.054673,10.9176332 Z" id="Shape"></path>
            </g>
        </g>
    </g>
</svg>