<?xml version="1.0" encoding="UTF-8"?>
<svg width="28px" height="28px" viewBox="0 0 28 28" version="1.1" xmlns="http://www.w3.org/2000/svg" xmlns:xlink="http://www.w3.org/1999/xlink">
    <!-- Generator: Sketch 47.1 (45422) - http://www.bohemiancoding.com/sketch -->
    <title>icon-ventas-white</title>
    <desc>Created with Sketch.</desc>
    <defs></defs>
    <g id="Symbols" stroke="none" stroke-width="1" fill="none" fill-rule="evenodd">
        <g id="icon-ventas-white" fill-rule="nonzero" fill="#FFFFFF">
            <g id="icon-ventas" transform="translate(0.000000, 3.000000)">
                <path d="M27.4166484,7.75187049 C27.7390859,7.75187049 28,7.48515833 28,7.15555556 L28,2.38520382 C28,1.06969965 26.9535547,0 25.6666484,0 L2.33335156,0 C1.04644531,0 0,1.06969965 0,2.38520382 L0,7.15555556 C0,7.48515833 0.260914062,7.75187049 0.583351562,7.75187049 C2.19149219,7.75187049 3.5,9.08945625 3.5,10.7333333 C3.5,12.3772104 2.19149219,13.7147962 0.583351563,13.7147962 C0.260914062,13.7147962 0,13.9815083 0,14.3111111 L0,19.0814628 C0,20.396967 1.04644531,21.4666667 2.33335156,21.4666667 L25.6667031,21.4666667 C26.9535547,21.4666667 28,20.396967 28,19.0814628 L28,14.3111111 C28,13.9815083 27.7390859,13.7147962 27.4166484,13.7147962 C25.8085078,13.7147962 24.5,12.3772104 24.5,10.7333333 C24.5,9.08945625 25.8085078,7.75187049 27.4166484,7.75187049 Z M23.3333516,10.7333333 C23.3333516,12.8325944 24.8572187,14.5749163 26.8333516,14.864884 L26.8333516,19.0814628 C26.8333516,19.7388795 26.3098281,20.2740368 25.6667031,20.2740368 L2.33335156,20.2740368 C1.69022656,20.2740368 1.16670312,19.7388795 1.16670312,19.0814628 L1.16670312,14.864884 C3.14283594,14.5748604 4.66670312,12.8325944 4.66670312,10.7333333 C4.66670312,8.63407222 3.14283594,6.89175035 1.16670312,6.60178264 L1.16670312,2.38520382 C1.16670312,1.72778715 1.69022656,1.19262986 2.33335156,1.19262986 L25.6667031,1.19262986 C26.3098281,1.19262986 26.8333516,1.72778715 26.8333516,2.38520382 L26.8333516,6.60178264 C24.8571641,6.89175035 23.3333516,8.63407222 23.3333516,10.7333333 Z" id="Shape"></path>
                <path d="M14.3499569,13.5955052 L11.9000123,13.5955052 C11.5130926,13.5955052 11.2,13.9155555 11.2,14.3110734 C11.2,14.7065913 11.5130926,15.0266415 11.9000123,15.0266415 L13.2999713,15.0266415 L13.2999713,15.7422096 C13.2999713,16.1377276 13.6130639,16.4577778 13.9999836,16.4577778 C14.3869033,16.4577778 14.6999959,16.1377276 14.6999959,15.7422096 L14.6999959,14.9904841 C15.8842485,14.8150636 16.7999672,13.7805856 16.7999672,12.5222537 C16.7999672,11.1414963 15.7007635,10.0178658 14.3500226,10.0178658 L13.6500103,10.0178658 C13.0710088,10.0178658 12.6000246,9.53641532 12.6000246,8.94454716 C12.6000246,8.35267901 13.0710088,7.87122851 13.6500103,7.87122851 L16.0999549,7.87122851 C16.4868746,7.87122851 16.7999672,7.5511783 16.7999672,7.15566037 C16.7999672,6.76007536 16.4868746,6.44002516 16.0999549,6.44002516 L14.6999959,6.44002516 L14.6999959,5.72445702 C14.6999959,5.3289391 14.3869033,5.00888889 13.9999836,5.00888889 C13.6130639,5.00888889 13.2999713,5.3289391 13.2999713,5.72445702 L13.2999713,6.47618258 C12.1157187,6.6516031 11.2,7.68608104 11.2,8.944413 C11.2,10.3251704 12.2992037,11.4488008 13.6499446,11.4488008 L14.3499569,11.4488008 C14.9289584,11.4488008 15.3999426,11.9302513 15.3999426,12.5221195 C15.3999426,13.1140547 14.9289584,13.5955052 14.3499569,13.5955052 Z" id="Shape"></path>
            </g>
        </g>
    </g>
</svg>