<?xml version="1.0" encoding="UTF-8"?>
<svg width="28px" height="28px" viewBox="0 0 28 28" version="1.1" xmlns="http://www.w3.org/2000/svg" xmlns:xlink="http://www.w3.org/1999/xlink">
    <!-- Generator: Sketch 47.1 (45422) - http://www.bohemiancoding.com/sketch -->
    <title>icon-settings-white</title>
    <desc>Created with Sketch.</desc>
    <defs></defs>
    <g id="Symbols" stroke="none" stroke-width="1" fill="none" fill-rule="evenodd">
        <g id="icon-settings-white" fill-rule="nonzero" fill="#FFFFFF">
            <g id="icon-settings" transform="translate(0.000000, 1.000000)">
                <path d="M16.3333516,12.3341094 L16.3333516,2.3515625 C16.3333516,1.06471094 15.2869063,0.0182109375 14,0.0182109375 C12.7130937,0.0182109375 11.6666484,1.06471094 11.6666484,2.3515625 L11.6666484,12.3341094 C10.278625,13.1436484 9.33329688,14.6321328 9.33329688,16.3515625 C9.33329688,18.0709922 10.2785703,19.5594766 11.6666484,20.3690156 L11.6666484,23.3515625 C11.6666484,24.6384141 12.7130938,25.6849141 14,25.6849141 C15.2869063,25.6849141 16.3333516,24.6384688 16.3333516,23.3515625 L16.3333516,20.3690156 C17.721375,19.5594766 18.6667031,18.0709922 18.6667031,16.3515625 C18.6667031,14.6321328 17.721375,13.1436484 16.3333516,12.3341094 Z M12.8333516,2.3515625 C12.8333516,1.7084375 13.356875,1.18491406 14,1.18491406 C14.643125,1.18491406 15.1666484,1.7084375 15.1666484,2.3515625 L15.1666484,11.8506172 C14.7915469,11.7531094 14.4051797,11.6849141 14,11.6849141 C13.5948203,11.6849141 13.2084531,11.7531094 12.8333516,11.8506172 L12.8333516,2.3515625 Z M15.1666484,23.3515625 C15.1666484,23.9946875 14.643125,24.5182109 14,24.5182109 C13.356875,24.5182109 12.8333516,23.9946875 12.8333516,23.3515625 L12.8333516,20.8525078 C13.2084531,20.9500156 13.5948203,21.0182109 14,21.0182109 C14.4051797,21.0182109 14.7915469,20.9500156 15.1666484,20.8525078 L15.1666484,23.3515625 L15.1666484,23.3515625 Z M14,19.8515625 C12.0699688,19.8515625 10.5,18.2815938 10.5,16.3515625 C10.5,14.4215312 12.0699688,12.8515625 14,12.8515625 C15.9300313,12.8515625 17.5,14.4215312 17.5,16.3515625 C17.5,18.2815938 15.9300312,19.8515625 14,19.8515625 Z" id="Shape"></path>
                <path d="M7,3.00075781 L7,2.3515625 C7,1.06471094 5.95355469,0.0182109375 4.66664844,0.0182109375 C3.37974219,0.0182109375 2.33335156,1.06471094 2.33335156,2.3515625 L2.33335156,3.00075781 C0.945273437,3.81029688 0,5.29878125 0,7.01821094 C0,8.73764063 0.945273437,10.226125 2.33335156,11.0356641 L2.33335156,23.3515625 C2.33335156,24.6384141 3.37979687,25.6849141 4.66670312,25.6849141 C5.95360937,25.6849141 7,24.6384141 7,23.3515625 L7,11.0357188 C8.38807812,10.2261797 9.33335156,8.73769531 9.33335156,7.01826563 C9.33335156,5.29883594 8.38807812,3.81029688 7,3.00075781 Z M3.5,2.3515625 C3.5,1.7084375 4.02352344,1.18491406 4.66664844,1.18491406 C5.30977344,1.18491406 5.83329687,1.7084375 5.83329687,2.3515625 L5.83329687,2.51726562 C5.45819531,2.41975781 5.07182812,2.3515625 4.66664844,2.3515625 C4.26146875,2.3515625 3.87510156,2.41975781 3.5,2.51726562 L3.5,2.3515625 Z M5.83335156,23.3515625 C5.83335156,23.9946875 5.30982812,24.5182109 4.66670312,24.5182109 C4.02352344,24.5182109 3.5,23.9946875 3.5,23.3515625 L3.5,11.5192109 C3.87510156,11.6167187 4.26146875,11.6849141 4.66664844,11.6849141 C5.07182812,11.6849141 5.45819531,11.6167187 5.83329687,11.5192109 L5.83329687,23.3515625 L5.83335156,23.3515625 Z M4.66664844,10.5182109 C2.73661719,10.5182109 1.16664844,8.94824219 1.16664844,7.01821094 C1.16664844,5.08817969 2.73661719,3.51821094 4.66664844,3.51821094 C6.59667969,3.51821094 8.16664844,5.08817969 8.16664844,7.01821094 C8.16664844,8.94824219 6.59667969,10.5182109 4.66664844,10.5182109 Z" id="Shape"></path>
                <path d="M25.6666484,5.33410938 L25.6666484,2.3515625 C25.6666484,1.06471094 24.6202031,0.0182109375 23.3332969,0.0182109375 C22.0463906,0.0182109375 21,1.06471094 21,2.3515625 L21,5.33410938 C19.6119766,6.14364844 18.6666484,7.63213281 18.6666484,9.3515625 C18.6666484,11.0709922 19.6119219,12.5594766 21,13.3690156 L21,23.3515625 C21,24.6384141 22.0464453,25.6849141 23.3333516,25.6849141 C24.6202578,25.6849141 25.6667031,24.6384688 25.6667031,23.3515625 L25.6667031,13.3690156 C27.0547266,12.5594766 28,11.0709922 28,9.3515625 C28,7.63213281 27.0547266,6.14364844 25.6666484,5.33410938 Z M22.1666484,2.3515625 C22.1666484,1.7084375 22.6901719,1.18491406 23.3332969,1.18491406 C23.9764219,1.18491406 24.5,1.7084375 24.5,2.3515625 L24.5,4.85061719 C24.1248984,4.75310937 23.7385313,4.68491406 23.3333516,4.68491406 C22.9281719,4.68491406 22.5418047,4.75310937 22.1667031,4.85061719 L22.1667031,2.3515625 L22.1666484,2.3515625 Z M24.5,23.3515625 C24.5,23.9946875 23.9764766,24.5182109 23.3333516,24.5182109 C22.6902266,24.5182109 22.1666484,23.9946875 22.1666484,23.3515625 L22.1666484,13.8525078 C22.54175,13.9500156 22.9281172,14.0182109 23.3332969,14.0182109 C23.7384766,14.0182109 24.1248438,13.9500156 24.4999453,13.8525078 L24.4999453,23.3515625 L24.5,23.3515625 Z M23.3333516,12.8515625 C21.4033203,12.8515625 19.8333516,11.2815937 19.8333516,9.3515625 C19.8333516,7.42153125 21.4033203,5.8515625 23.3333516,5.8515625 C25.2633828,5.8515625 26.8333516,7.42153125 26.8333516,9.3515625 C26.8333516,11.2815937 25.2633281,12.8515625 23.3333516,12.8515625 Z" id="Shape"></path>
            </g>
        </g>
    </g>
</svg>