<?xml version="1.0" encoding="UTF-8"?>
<svg width="1000px" height="1000px" viewBox="0 0 1000 1000" version="1.1" xmlns="http://www.w3.org/2000/svg" xmlns:xlink="http://www.w3.org/1999/xlink">
    <!-- Generator: Sketch 47.1 (45422) - http://www.bohemiancoding.com/sketch -->
    <title>image-placeholder</title>
    <desc>Created with Sketch.</desc>
    <defs></defs>
    <g id="Page-1" stroke="none" stroke-width="1" fill="none" fill-rule="evenodd">
        <g id="image-placeholder" fill-rule="nonzero">
            <g id="commons-/-shape-inner" fill="#EDEDED">
                <rect id="shape" x="0" y="0" width="1000" height="1000"></rect>
            </g>
            <g id="icon-/-media-/-image" transform="translate(300.000000, 342.000000)" fill="#4F4F4F">
                <path d="M392.005832,0.364693145 L6.87729529,0.364693145 C3.08102832,0.364693145 0,3.43884438 0,7.24198872 L0,309.842981 C0,313.646126 3.08102832,316.720277 6.87729529,316.720277 L392.005832,316.720277 C395.802099,316.720277 398.883127,313.646126 398.883127,309.842981 L398.883127,7.24198872 C398.883127,3.43884438 395.802099,0.364693145 392.005832,0.364693145 Z M385.128537,302.965686 L13.7545906,302.965686 L13.7545906,14.1192837 L385.128537,14.1192837 L385.128537,302.965686 Z M110.036725,152.614257 C131.156898,152.614257 148.336382,135.434773 148.336382,114.321476 C148.336382,93.1944253 131.156898,76.0149416 110.036725,76.0149416 C88.9165508,76.0149416 71.7370671,93.1944253 71.7370671,114.314599 C71.7370671,135.434773 88.9165508,152.614257 110.036725,152.614257 Z M110.036725,89.7695322 C123.571242,89.7695322 134.581792,100.786959 134.581792,114.314599 C134.581792,127.842239 123.571242,138.859666 110.036725,138.859666 C96.5022075,138.859666 85.4916576,127.849116 85.4916576,114.321476 C85.4916576,100.793836 96.5022075,89.7695322 110.036725,89.7695322 Z M48.1410673,275.456505 C46.2360562,275.456505 44.337923,274.672494 42.9762186,273.125102 C40.4660055,270.271025 40.7410975,265.924573 43.5951747,263.414361 L160.626109,160.371846 C163.349518,157.978547 167.46214,158.109215 170.034249,160.674446 L202.653261,193.293458 L270.009491,119.520712 C271.240527,118.172761 272.95985,117.368118 274.782333,117.285591 C276.591062,117.244327 278.386036,117.856406 279.733986,119.087442 L362.26153,194.73769 C365.067467,197.302922 365.253153,201.656249 362.687922,204.455309 C360.122691,207.254368 355.769363,207.446932 352.970304,204.881701 L275.525082,133.887382 L212.384633,203.031708 L245.443792,236.090867 C248.132814,238.779889 248.132814,243.12634 245.443792,245.815362 C242.75477,248.504385 238.408319,248.504385 235.719296,245.815362 L164.8694,174.972344 L52.6800821,273.744058 C51.3733956,274.892567 49.7503544,275.456505 48.1410673,275.456505 Z" id="Shape"></path>
            </g>
        </g>
    </g>
</svg>