<?xml version="1.0" encoding="UTF-8"?>
<svg width="314px" height="100px" viewBox="0 0 314 100" version="1.1" xmlns="http://www.w3.org/2000/svg" xmlns:xlink="http://www.w3.org/1999/xlink">
    <!-- Generator: Sketch 47.1 (45422) - http://www.bohemiancoding.com/sketch -->
    <title>Group</title>
    <desc>Created with Sketch.</desc>
    <defs></defs>
    <g id="Symbols" stroke="none" stroke-width="1" fill="none" fill-rule="evenodd">
        <g id="widget--marketplace" transform="translate(-25.000000, -64.000000)">
            <g id="Group" transform="translate(25.000000, 64.000000)">
                <path d="M23.5,99.5 L313.5,99.5" id="Line" stroke="#D5D5D5" stroke-linecap="square"></path>
                <path d="M23.5,75.5 L313.5,75.5" id="Line" stroke="#D5D5D5" stroke-linecap="square"></path>
                <path d="M23.5,50.5 L313.5,50.5" id="Line" stroke="#D5D5D5" stroke-linecap="square"></path>
                <path d="M23.5,25.5 L313.5,25.5" id="Line" stroke="#D5D5D5" stroke-linecap="square"></path>
                <path d="M23.5,1.5 L313.5,1.5" id="Line" stroke="#D5D5D5" stroke-linecap="square"></path>
                <path d="M7.82,92.752 C7.82,93.6880047 7.98599834,94.4439971 8.318,95.02 C8.65000166,95.5960029 9.16799648,95.884 9.872,95.884 C10.5760035,95.884 11.0899984,95.5980029 11.414,95.026 C11.7380016,94.4539971 11.9,93.6960047 11.9,92.752 C11.9,91.8079953 11.7380016,91.0500029 11.414,90.478 C11.0899984,89.9059971 10.5760035,89.62 9.872,89.62 C9.16799648,89.62 8.65000166,89.9079971 8.318,90.484 C7.98599834,91.0600029 7.82,91.8159953 7.82,92.752 Z M6.452,92.752 C6.452,91.4319934 6.73599716,90.3780039 7.304,89.59 C7.87200284,88.8019961 8.72799428,88.408 9.872,88.408 C11.0160057,88.408 11.8719972,88.8019961 12.44,89.59 C13.0080028,90.3780039 13.292,91.4319934 13.292,92.752 C13.292,94.0720066 13.0080028,95.1259961 12.44,95.914 C11.8719972,96.7020039 11.0160057,97.096 9.872,97.096 C8.72799428,97.096 7.87200284,96.7020039 7.304,95.914 C6.73599716,95.1259961 6.452,94.0720066 6.452,92.752 Z" id="0" fill="#212121"></path>
                <path d="M8.628,44.6 L8.628,45.884 L5.088,45.884 L5.088,47.948 C5.44000176,47.755999 5.83999776,47.66 6.288,47.66 C7.07200392,47.66 7.74799716,47.8959976 8.316,48.368 C8.88400284,48.8400024 9.168,49.479996 9.168,50.288 C9.168,51.096004 8.87200296,51.7659973 8.28,52.298 C7.68799704,52.8300027 6.96000432,53.096 6.096,53.096 C4.96799436,53.096 4.06800336,52.7200038 3.396,51.968 L4.152,50.936 C4.21600032,51.0000003 4.30199946,51.0759996 4.41,51.164 C4.51800054,51.2520004 4.73999832,51.3699993 5.076,51.518 C5.41200168,51.6660007 5.779998,51.74 6.18,51.74 C6.580002,51.74 6.94399836,51.6200012 7.272,51.38 C7.60000164,51.1399988 7.764,50.7900023 7.764,50.33 C7.764,49.8699977 7.59000174,49.5140013 7.242,49.262 C6.89399826,49.0099987 6.45400266,48.884 5.922,48.884 C5.38999734,48.884 4.8840024,49.0159987 4.404,49.28 L3.804,48.632 L3.804,44.6 L8.628,44.6 Z M11.82,48.752 C11.82,49.6880047 11.9859983,50.4439971 12.318,51.02 C12.6500017,51.5960029 13.1679965,51.884 13.872,51.884 C14.5760035,51.884 15.0899984,51.5980029 15.414,51.026 C15.7380016,50.4539971 15.9,49.6960047 15.9,48.752 C15.9,47.8079953 15.7380016,47.0500029 15.414,46.478 C15.0899984,45.9059971 14.5760035,45.62 13.872,45.62 C13.1679965,45.62 12.6500017,45.9079971 12.318,46.484 C11.9859983,47.0600029 11.82,47.8159953 11.82,48.752 Z M10.452,48.752 C10.452,47.4319934 10.7359972,46.3780039 11.304,45.59 C11.8720028,44.8019961 12.7279943,44.408 13.872,44.408 C15.0160057,44.408 15.8719972,44.8019961 16.44,45.59 C17.0080028,46.3780039 17.292,47.4319934 17.292,48.752 C17.292,50.0720066 17.0080028,51.1259961 16.44,51.914 C15.8719972,52.7020039 15.0160057,53.096 13.872,53.096 C12.7279943,53.096 11.8720028,52.7020039 11.304,51.914 C10.7359972,51.1259961 10.452,50.0720066 10.452,48.752 Z" id="50" fill="#212121"></path>
                <path d="M0.264,3.612 L3.312,3.612 L3.312,12 L1.968,12 L1.968,4.872 L0.264,4.872 L0.264,3.612 Z M6.564,7.752 C6.564,8.68800468 6.72999834,9.44399712 7.062,10.02 C7.39400166,10.5960029 7.91199648,10.884 8.616,10.884 C9.32000352,10.884 9.83399838,10.5980029 10.158,10.026 C10.4820016,9.45399714 10.644,8.69600472 10.644,7.752 C10.644,6.80799528 10.4820016,6.05000286 10.158,5.478 C9.83399838,4.90599714 9.32000352,4.62 8.616,4.62 C7.91199648,4.62 7.39400166,4.90799712 7.062,5.484 C6.72999834,6.06000288 6.564,6.81599532 6.564,7.752 Z M5.196,7.752 C5.196,6.4319934 5.47999716,5.37800394 6.048,4.59 C6.61600284,3.80199606 7.47199428,3.408 8.616,3.408 C9.76000572,3.408 10.6159972,3.80199606 11.184,4.59 C11.7520028,5.37800394 12.036,6.4319934 12.036,7.752 C12.036,9.0720066 11.7520028,10.1259961 11.184,10.914 C10.6159972,11.7020039 9.76000572,12.096 8.616,12.096 C7.47199428,12.096 6.61600284,11.7020039 6.048,10.914 C5.47999716,10.1259961 5.196,9.0720066 5.196,7.752 Z M14.82,7.752 C14.82,8.68800468 14.9859983,9.44399712 15.318,10.02 C15.6500017,10.5960029 16.1679965,10.884 16.872,10.884 C17.5760035,10.884 18.0899984,10.5980029 18.414,10.026 C18.7380016,9.45399714 18.9,8.69600472 18.9,7.752 C18.9,6.80799528 18.7380016,6.05000286 18.414,5.478 C18.0899984,4.90599714 17.5760035,4.62 16.872,4.62 C16.1679965,4.62 15.6500017,4.90799712 15.318,5.484 C14.9859983,6.06000288 14.82,6.81599532 14.82,7.752 Z M13.452,7.752 C13.452,6.4319934 13.7359972,5.37800394 14.304,4.59 C14.8720028,3.80199606 15.7279943,3.408 16.872,3.408 C18.0160057,3.408 18.8719972,3.80199606 19.44,4.59 C20.0080028,5.37800394 20.292,6.4319934 20.292,7.752 C20.292,9.0720066 20.0080028,10.1259961 19.44,10.914 C18.8719972,11.7020039 18.0160057,12.096 16.872,12.096 C15.7279943,12.096 14.8720028,11.7020039 14.304,10.914 C13.7359972,10.1259961 13.452,9.0720066 13.452,7.752 Z" id="100" fill="#212121"></path>
                <g id="bars" transform="translate(35.000000, 0.000000)" fill="#6FCCE3">
                    <rect id="bar-Copy-13" x="260" y="59" width="10" height="41"></rect>
                    <rect id="bar-Copy-12" x="240" y="13" width="10" height="87"></rect>
                    <rect id="bar-Copy-11" x="220" y="42" width="10" height="58"></rect>
                    <rect id="bar-Copy-10" x="200" y="25" width="10" height="75"></rect>
                    <rect id="bar-Copy-9" x="180" y="59" width="10" height="41"></rect>
                    <rect id="bar-Copy-8" x="160" y="35" width="10" height="65"></rect>
                    <rect id="bar-Copy-7" x="140" y="80" width="10" height="20"></rect>
                    <rect id="bar-Copy-6" x="120" y="70" width="10" height="30"></rect>
                    <rect id="bar-Copy-5" x="100" y="80" width="10" height="20"></rect>
                    <rect id="bar-Copy-4" x="80" y="35" width="10" height="65"></rect>
                    <rect id="bar-Copy-3" x="60" y="51" width="10" height="49"></rect>
                    <rect id="bar-Copy-2" x="40" y="59" width="10" height="41"></rect>
                    <rect id="bar-Copy" x="20" y="0" width="10" height="100"></rect>
                    <rect id="bar" x="0" y="51" width="10" height="49"></rect>
                </g>
            </g>
        </g>
    </g>
</svg>